<?xml version="1.0" encoding="utf-8"?>
<svg id="master-artboard" viewBox="0 0 64 64" version="1.1" xmlns="http://www.w3.org/2000/svg" x="0px" y="0px" style="enable-background:new 0 0 1400 980;" width="64px" height="64px"><rect id="ee-background" x="0" y="0" width="64" height="64" style="fill: white; fill-opacity: 1; pointer-events: none;"/><defs><style id="ee-google-fonts">@import url(https://fonts.googleapis.com/css?family=Eagle+Lake:400);</style><path id="text-path-0" d="M -1.2723596096038818 46.775821685791016 A 100 -100 0 0 0 63.6463623046875 46.775821685791016 A 100 -100 0 0 0 -1.2723596096038818 46.775821685791016 Z" style="fill: none; stroke: red; stroke-width: 2;"/></defs>























































































































<path d="M 26.135339736938477 42.340049743652344 C 25.769927978515625 43.47854232788086 25.19753646850586 44.509883880615234 24.418163299560547 45.434078216552734 C 23.6387882232666 46.35826873779297 22.73289680480957 47.1804084777832 21.700483322143555 47.90049362182617 C 20.66152000427246 48.61933517456055 19.53127098083496 49.22924041748047 18.30974006652832 49.7302131652832 C 17.086963653564453 50.23773193359375 15.849302291870117 50.62706756591797 14.596755027770996 50.89822006225586 C 13.344206809997559 51.16937255859375 12.109522819519043 51.32855987548828 10.892698287963867 51.37577819824219 C 9.682425498962402 51.42424011230469 8.569686889648438 51.35211181640625 7.554483890533447 51.159393310546875 C 7.059193134307861 51.051795959472656 6.561084270477295 50.923309326171875 6.060154914855957 50.773929595947266 C 5.624722480773926 50.636985778808594 5.140622615814209 50.47044372558594 4.607855319976807 50.2743034362793 C 4.07633113861084 50.071617126464844 3.560060501098633 49.82432556152344 3.0590429306030273 49.53242874145508 L 8.800676345825195 24.005373001098633 C 8.263601303100586 23.903417587280273 7.684408664703369 23.773109436035156 7.063097953796387 23.614450454711914 C 6.441787242889404 23.455787658691406 5.769777774810791 23.260360717773438 5.047069549560547 23.028165817260742 L 10.487146377563477 21.18033790588379 C 10.91760540008545 21.343482971191406 11.346487998962402 21.479185104370117 11.773794174194336 21.587446212768555 C 12.194551467895508 21.6944637298584 12.591595649719238 21.783409118652344 12.96492862701416 21.854280471801758 C 13.626447677612305 21.9798583984375 14.279674530029297 22.059757232666016 14.92460823059082 22.093971252441406 C 15.56954288482666 22.128189086914062 16.203243255615234 22.150094985961914 16.825708389282227 22.15968894958496 C 17.442867279052734 22.161489486694336 18.05426597595215 22.17576789855957 18.659902572631836 22.202524185180664 C 19.264293670654297 22.235830307006836 19.86777687072754 22.309677124023438 20.470348358154297 22.4240665435791 C 21.452802658081055 22.610570907592773 22.330551147460938 22.919696807861328 23.103591918945312 23.35144805908203 C 23.876632690429688 23.783199310302734 24.510807037353516 24.32090950012207 25.00611686706543 24.96457862854004 C 25.501426696777344 25.608251571655273 25.833538055419922 26.34308433532715 26.002450942993164 27.169078826904297 C 26.171363830566406 27.995075225830078 26.148225784301758 28.903362274169922 25.93303680419922 29.89394187927246 C 25.745689392089844 30.523378372192383 25.392902374267578 31.14855194091797 24.87467384338379 31.76946258544922 C 24.656225204467773 32.02656555175781 24.39412498474121 32.299129486083984 24.088375091552734 32.587162017822266 C 23.782625198364258 32.87519073486328 23.416685104370117 33.1585807800293 22.99055290222168 33.43733215332031 C 22.56566619873047 33.709529876708984 22.084482192993164 33.97443389892578 21.547006607055664 34.23204803466797 C 21.009531021118164 34.48965835571289 20.40125274658203 34.72704315185547 19.722169876098633 34.9442024230957 C 19.956382751464844 34.96152114868164 20.18280029296875 34.98414611816406 20.40142822265625 35.01207733154297 C 20.626604080200195 35.04125213623047 20.834163665771484 35.07387161254883 21.02410316467285 35.109928131103516 C 21.855915069580078 35.2678337097168 22.5667667388916 35.49099349975586 23.156660079956055 35.77940368652344 C 23.73876190185547 36.0731201171875 24.231698989868164 36.407588958740234 24.635469436645508 36.78281021118164 C 25.032690048217773 37.15679168701172 25.3450984954834 37.5485954284668 25.57269287109375 37.95823287963867 C 25.79904556274414 38.37441635131836 25.96396255493164 38.792510986328125 26.067445755004883 39.2125129699707 C 26.324079513549805 40.18408966064453 26.346712112426758 41.226600646972656 26.135339736938477 42.340049743652344 M 13.028131484985352 49.13472366333008 C 14.082633018493652 49.334903717041016 15.040664672851562 49.36409378051758 15.902228355407715 49.2222900390625 C 16.763792037963867 49.08048629760742 17.522504806518555 48.783443450927734 18.178363800048828 48.33116149902344 C 18.832979202270508 47.88542938232422 19.377573013305664 47.28649139404297 19.812143325805664 46.534339904785156 C 20.24547004699707 45.78874206542969 20.55911636352539 44.905067443847656 20.753080368041992 43.88331604003906 C 20.918445587158203 43.01220703125 20.92338752746582 42.18189239501953 20.767908096313477 41.39237594604492 C 20.612428665161133 40.60285949707031 20.319782257080078 39.89248275756836 19.889968872070312 39.2612419128418 C 19.460155487060547 38.6300048828125 18.913612365722656 38.095359802246094 18.250341415405273 37.65730667114258 C 17.59362030029297 37.22049331665039 16.842802047729492 36.92189025878906 15.997891426086426 36.761497497558594 C 15.676957130432129 36.7005729675293 15.346529006958008 36.671775817871094 15.006610870361328 36.675106048583984 C 14.67448616027832 36.673126220703125 14.331791877746582 36.72682189941406 13.978529930114746 36.83618927001953 C 15.17519474029541 36.46621322631836 16.175201416015625 36.04194259643555 16.978553771972656 35.56337356567383 C 17.788454055786133 35.0860481262207 18.443191528320312 34.58605194091797 18.94277000427246 34.063385009765625 C 19.44765281677246 33.548519134521484 19.825607299804688 33.02312088012695 20.076627731323242 32.48720169067383 C 20.334199905395508 31.952526092529297 20.508989334106445 31.442846298217773 20.600997924804688 30.95816993713379 C 20.74025535583496 30.2246036529541 20.738569259643555 29.51856803894043 20.595945358276367 28.840065002441406 C 20.45456314086914 28.15500831604004 20.20204734802246 27.537073135375977 19.838396072387695 26.986251831054688 C 19.4825382232666 26.430126190185547 19.02164077758789 25.962629318237305 18.455703735351562 25.58376693725586 C 17.889768600463867 25.20490264892578 17.256391525268555 24.948951721191406 16.555572509765625 24.8159122467041 C 16.07089614868164 24.72390365600586 15.604789733886719 24.659170150756836 15.157258033752441 24.621713638305664 C 14.71627426147461 24.585500717163086 14.273426055908203 24.559112548828125 13.828712463378906 24.542545318603516 L 8.571988105773926 47.515220642089844 C 9.435481071472168 47.97092819213867 10.236541748046875 48.326568603515625 10.97516918182373 48.5821418762207 C 11.708490371704102 48.829925537109375 12.392810821533203 49.01411819458008 13.028131484985352 49.13472366333008 ZM 58.32022476196289 32.673030853271484 C 57.96670913696289 33.126766204833984 57.57368469238281 33.538936614990234 57.14113998413086 33.9095458984375 C 56.7151985168457 34.27922439575195 56.276100158691406 34.627193450927734 55.823848724365234 34.95344924926758 C 56.01871109008789 36.5283317565918 56.22686767578125 38.293212890625 56.44831466674805 40.24810028076172 C 56.66976547241211 42.20298767089844 56.930355072021484 44.387996673583984 57.2300910949707 46.803131103515625 C 57.9503059387207 46.849815368652344 58.600830078125 46.8558235168457 59.181671142578125 46.82114791870117 C 59.76251220703125 46.786476135253906 60.28398513793945 46.73659896850586 60.74609375 46.6715202331543 C 61.122379302978516 46.618526458740234 61.45389938354492 46.55837631225586 61.74064254760742 46.49106216430664 C 62.020790100097656 46.424678802490234 62.25802993774414 46.36433792114258 62.452354431152344 46.31003952026367 C 62.67782974243164 46.237892150878906 62.870296478271484 46.17039108276367 63.02975845336914 46.107540130615234 C 62.343101501464844 46.729373931884766 61.66736602783203 47.30927658081055 61.002559661865234 47.84724426269531 C 60.33021926879883 48.379539489746094 59.680152893066406 48.85483932495117 59.05235290527344 49.27314376831055 C 58.41794967651367 49.692378997802734 57.81432342529297 50.04331970214844 57.241477966308594 50.325965881347656 C 56.67523193359375 50.60768508911133 56.14167022705078 50.81074523925781 55.64078903198242 50.93514633178711 C 55.13330841064453 51.06047439575195 54.687660217285156 51.14679718017578 54.30384063720703 51.19411849975586 C 53.913421630859375 51.24237060546875 53.58116149902344 51.20164108276367 53.30706024169922 51.07193374633789 C 53.03203201293945 50.93561935424805 52.80670166015625 50.698055267333984 52.631065368652344 50.35923767089844 C 52.46110534667969 50.01288986206055 52.330570220947266 49.516239166259766 52.23945999145508 48.869293212890625 C 52.1976203918457 48.57222366333008 52.13124465942383 48.05307388305664 52.04031753540039 47.31184387207031 C 51.94939422607422 46.570613861083984 51.84461975097656 45.68321990966797 51.725990295410156 44.64966583251953 C 51.60829544067383 43.622711181640625 51.47572326660156 42.49013137817383 51.32827377319336 41.25192642211914 C 51.18649673461914 40.00619125366211 51.044769287109375 38.73688888549805 50.90308380126953 37.44401168823242 C 50.101139068603516 37.72526168823242 49.34265899658203 37.95663070678711 48.627647399902344 38.138118743896484 C 47.912635803222656 38.319602966308594 47.27972412109375 38.46259689331055 46.72891616821289 38.56709671020508 C 46.08661651611328 38.69121551513672 45.48634338378906 38.779117584228516 44.928096771240234 38.830806732177734 C 43.51360321044922 38.96942138671875 42.24290466308594 39.10124588012695 41.115997314453125 39.226287841796875 C 39.98908996582031 39.3513298034668 38.98003387451172 39.47660827636719 38.088829040527344 39.602115631103516 C 37.54750442504883 39.67835235595703 37.04671859741211 39.755611419677734 36.58647155761719 39.833892822265625 C 36.126220703125 39.912174224853516 35.69001007080078 39.993804931640625 35.27783203125 40.07878112792969 L 36.516319274902344 50.23531723022461 C 36.98567581176758 50.31732940673828 37.44145965576172 50.35076141357422 37.8836669921875 50.33561325073242 C 38.3202018737793 50.3279914855957 38.736515045166016 50.29629135131836 39.132606506347656 50.240509033203125 C 39.65412902832031 50.16706466674805 40.12855529785156 50.06995391845703 40.55588912963867 49.949180603027344 C 40.98229217529297 49.82180404663086 41.35402297973633 49.688663482666016 41.67108154296875 49.54975509643555 C 41.98814392089844 49.410850524902344 42.23774719238281 49.2949104309082 42.41989517211914 49.20193099975586 C 42.60771179199219 49.10142517089844 42.71296691894531 49.036109924316406 42.73565673828125 49.0059814453125 C 42.20083236694336 49.6064338684082 41.61375427246094 50.17048263549805 40.974422454833984 50.6981315612793 C 40.340763092041016 51.21824645996094 39.69353103637695 51.689781188964844 39.03272247314453 52.112735748291016 C 38.378517150878906 52.534759521484375 37.738121032714844 52.88751220703125 37.11153030395508 53.170997619628906 C 36.49154281616211 53.45355224609375 35.93111038208008 53.65702819824219 35.43022918701172 53.781429290771484 C 34.92274856567383 53.90675735473633 34.45069122314453 53.99679946899414 34.014060974121094 54.05155944824219 C 33.577430725097656 54.106319427490234 33.18575668334961 54.07395553588867 32.83904266357422 53.954471588134766 C 32.49139404296875 53.82838821411133 32.20335006713867 53.59965515136719 31.974903106689453 53.26827621459961 C 31.738927841186523 52.93122482299805 31.57538414001465 52.43922424316406 31.484272003173828 51.792274475097656 C 31.438716888427734 51.46879959106445 31.370059967041016 50.909576416015625 31.27829933166504 50.11460494995117 C 31.186540603637695 49.31963348388672 31.07953453063965 48.368595123291016 30.9572811126709 47.26149368286133 C 30.83502960205078 46.15439224243164 30.7016658782959 44.94449996948242 30.55719566345215 43.63182067871094 C 30.412723541259766 42.31914138793945 30.26262664794922 40.990421295166016 30.106904983520508 39.64566421508789 C 29.95685386657715 38.29337692260742 29.815217971801758 36.9769287109375 29.681997299194336 35.696327209472656 C 29.54877471923828 34.41572570800781 29.42475700378418 33.2482795715332 29.309940338134766 32.19398880004883 C 29.196056365966797 31.146299362182617 29.102577209472656 30.267414093017578 29.029504776000977 29.55733299255371 C 28.955503463745117 28.84065055847168 28.907392501831055 28.379520416259766 28.885173797607422 28.17394256591797 C 28.83515739440918 27.723180770874023 28.602388381958008 27.432804107666016 28.186866760253906 27.302812576293945 C 27.763813018798828 27.167150497436523 27.26181983947754 27.140228271484375 26.680885314941406 27.222042083740234 C 26.205575942993164 27.28898048400879 25.720272064208984 27.40445327758789 25.2249698638916 27.56846046447754 C 24.72966766357422 27.73246955871582 24.25226593017578 27.904056549072266 23.792760848999023 28.083221435546875 C 24.384950637817383 27.55548095703125 24.975189208984375 27.061676025390625 25.563472747802734 26.601808547973633 C 26.151756286621094 26.141942977905273 26.750314712524414 25.731122970581055 27.359146118164062 25.36935043334961 C 27.974578857421875 25.00664710998535 28.605445861816406 24.70572853088379 29.251747131347656 24.466594696044922 C 29.903718948364258 24.219932556152344 30.589487075805664 24.045930862426758 31.309053421020508 23.944591522216797 C 31.592918395996094 23.90461540222168 31.86260414123535 23.883466720581055 32.11811065673828 23.881145477294922 C 32.373619079589844 23.87882423400879 32.60220718383789 23.90049171447754 32.80387496948242 23.946147918701172 C 32.99894714355469 23.99273109436035 33.16049575805664 24.06423568725586 33.28852844238281 24.160655975341797 C 33.410884857177734 24.26460838317871 33.48368835449219 24.39910316467285 33.50693130493164 24.56414031982422 C 33.53184509277344 24.8366641998291 33.599430084228516 25.45999526977539 33.70969009399414 26.434139251708984 C 33.75413131713867 26.845291137695312 33.81581497192383 27.355003356933594 33.894744873046875 27.963274002075195 C 33.96707534790039 28.572471618652344 34.05000305175781 29.304729461669922 34.14352798461914 30.160045623779297 C 34.23705291748047 31.01535987854004 34.34917449951172 32.00270462036133 34.479888916015625 33.1220817565918 C 34.610599517822266 34.241458892822266 34.75749206542969 35.523502349853516 34.920555114746094 36.96821212768555 C 35.66950607299805 36.78867721557617 36.43728256225586 36.62332534790039 37.22388458251953 36.47215270996094 C 38.017093658447266 36.32004928588867 38.79988479614258 36.18960952758789 39.572261810302734 36.080833435058594 C 40.39745330810547 35.964622497558594 41.21599578857422 35.87290954589844 42.027889251708984 35.80569839477539 C 42.83885192871094 35.73188400268555 43.63707733154297 35.66322708129883 44.42256546020508 35.5997314453125 C 45.20805358886719 35.53623962402344 45.9869384765625 35.47367477416992 46.75922393798828 35.41204071044922 C 47.538108825683594 35.3494758605957 48.3071403503418 35.26473617553711 49.066314697265625 35.15781784057617 L 50.63087463378906 34.93748092651367 L 49.64036178588867 25.250959396362305 C 49.62102127075195 25.018047332763672 49.551151275634766 24.8326473236084 49.43074417114258 24.69475746154785 C 49.31601333618164 24.549335479736328 49.15971374511719 24.443431854248047 48.961856842041016 24.37704086303711 C 48.76967239379883 24.30312156677246 48.548194885253906 24.26025390625 48.29743194580078 24.248441696166992 C 48.046669006347656 24.236629486083984 47.779354095458984 24.250713348388672 47.495487213134766 24.290691375732422 C 47.00697326660156 24.35948944091797 46.50846481323242 24.476821899414062 45.999961853027344 24.642688751220703 C 45.491455078125 24.808557510375977 45.004150390625 24.981536865234375 44.53804397583008 25.161632537841797 C 45.136837005615234 24.63296127319336 45.73037338256836 24.13869285583496 46.318660736083984 23.67882537841797 C 46.90034103393555 23.219890594482422 47.4989013671875 22.809070587158203 48.11433410644531 22.446367263793945 C 48.72316360473633 22.084592819213867 49.357330322265625 21.78321075439453 50.0168342590332 21.542217254638672 C 50.67540740966797 21.29462432861328 51.364479064941406 21.12015724182129 52.08404541015625 21.01881980895996 C 52.638572692871094 20.940725326538086 53.127410888671875 20.945938110351562 53.55055618286133 21.034461975097656 C 53.979373931884766 21.11545181274414 54.21656036376953 21.317684173583984 54.262115478515625 21.641157150268555 C 54.28702926635742 21.913681030273438 54.352760314941406 22.5238094329834 54.45930099487305 23.47154426574707 C 54.50188064575195 23.869495391845703 54.55794143676758 24.363168716430664 54.627479553222656 24.952564239501953 C 54.697021484375 25.541959762573242 54.783294677734375 26.250181198120117 54.88630676269531 27.07723045349121 C 54.989315032958984 27.904279708862305 55.10431671142578 28.864290237426758 55.2313117980957 29.957260131835938 C 55.364906311035156 31.049299240112305 55.51658630371094 32.29364013671875 55.68634796142578 33.69028091430664 C 56.12409210205078 33.54784393310547 56.56374740600586 33.39503860473633 57.005306243896484 33.23186492919922 C 57.452537536621094 33.061161041259766 57.89084243774414 32.87488555908203 58.32022476196289 32.673030853271484 Z" transform="matrix(1, 0, 0, 1, 0, 0)" style="fill: rgb(51, 51, 51); white-space: pre; color: rgb(51, 51, 51);"/></svg>